<svg height="auto" viewBox="0 0 2000 1000" xmlns="http://www.w3.org/2000/svg"><path d="M0 993.496c21-5.983 63-14.552 105-29.918s63-27.738 105-46.912 63-43.794 105-48.958c42-5.164 63 49.258 105 23.137 42-26.12 63-118.805 105-153.742 42-34.936 63-6.808 105-20.94 42-14.134 63-52.777 105-49.725 42 3.052 63 61.864 105 64.984 42 3.12 63-1.572 105-49.385 42-47.813 63-153.887 105-189.68 42-35.792 63 4.952 105 10.715s63 36.476 105 18.102 63-127.143 105-109.971c42 17.172 63 174.742 105 195.83 42 21.088 63-45.751 105-90.39 42-44.638 63-100.883 105-132.803s63-41.199 105-26.796c42 14.402 63 163.517 105 98.81 42-64.708 84-337.878 105-422.347l5 966.493H0Z" fill="#58f7451a"/><path d="M0 993.496c21-5.983 63-14.552 105-29.918s63-27.738 105-46.912 63-43.794 105-48.958c42-5.164 63 49.258 105 23.137 42-26.12 63-118.805 105-153.742 42-34.936 63-6.808 105-20.94 42-14.134 63-52.777 105-49.725 42 3.052 63 61.864 105 64.984 42 3.12 63-1.572 105-49.385 42-47.813 63-153.887 105-189.68 42-35.792 63 4.952 105 10.715s63 36.476 105 18.102 63-127.143 105-109.971c42 17.172 63 174.742 105 195.83 42 21.088 63-45.751 105-90.39 42-44.638 63-100.883 105-132.803s63-41.199 105-26.796c42 14.402 63 163.517 105 98.81 42-64.708 84-337.878 105-422.347" fill="none" stroke="#58f745" stroke-width="2"/></svg>